<svg width="1921" height="1081" viewBox="0 0 1921 1081" fill="none" xmlns="http://www.w3.org/2000/svg">
<rect width="1920" height="1080" transform="translate(0.52002 0.77832)" fill="#1E221B"/>
<path d="M1063.53 377.119H1013.53V704.797H1063.53" stroke="#1EAFB9" stroke-width="8" stroke-linejoin="round"/>
<path d="M1201.25 377.119H1251.25V704.797H1201.25" stroke="#1EAFB9" stroke-width="8" stroke-linejoin="round"/>
<circle cx="1089.09" cy="454.347" r="22.3057" stroke="#D6FF7E" stroke-width="8" stroke-linejoin="round"/>
<circle cx="1175.7" cy="454.347" r="22.3057" stroke="#D6FF7E" stroke-width="8" stroke-linejoin="round"/>
<circle cx="1089.09" cy="540.958" r="22.3057" stroke="#D6FF7E" stroke-width="8" stroke-linejoin="round"/>
<circle cx="1175.7" cy="540.958" r="22.3057" stroke="#D6FF7E" stroke-width="8" stroke-linejoin="round"/>
<circle cx="1089.09" cy="627.569" r="22.3057" stroke="#D6FF7E" stroke-width="8" stroke-linejoin="round"/>
<circle cx="1175.7" cy="627.569" r="22.3057" stroke="#D6FF7E" stroke-width="8" stroke-linejoin="round"/>
<path d="M1239.85 904.428L1239.85 957.102L1508.64 957.101L1508.64 904.428" stroke="#27666A" stroke-width="8" stroke-linejoin="round"/>
<path d="M1490.55 930.765L1508.62 912.69L1526.7 930.765" stroke="#27666A" stroke-width="8" stroke-linejoin="round"/>
<path d="M1186.5 880.015L1186.5 907.142L1293.21 907.142L1293.21 880.015" stroke="#1EAFB9" stroke-width="8" stroke-linejoin="round"/>
<path d="M1375.43 880.015L1375.43 907.142L1641.82 907.142L1641.82 880.015" stroke="#1EAFB9" stroke-width="8" stroke-linejoin="round"/>
<circle cx="1225.55" cy="857.709" r="22.3057" stroke="#D6FF7E" stroke-width="8" stroke-linejoin="round"/>
<circle cx="1437.59" cy="857.709" r="22.3057" stroke="#D6FF7E" stroke-width="8" stroke-linejoin="round"/>
<path d="M323.039 449.685C325.248 449.685 327.039 447.894 327.039 445.685L327.039 409.685C327.039 407.476 325.248 405.685 323.039 405.685C320.83 405.685 319.039 407.476 319.039 409.685L319.039 441.685L287.039 441.685C284.83 441.685 283.039 443.476 283.039 445.685C283.039 447.895 284.83 449.685 287.039 449.685L323.039 449.685ZM180.162 297.151C178.599 295.589 176.067 295.589 174.505 297.151C172.943 298.713 172.943 301.246 174.505 302.808L180.162 297.151ZM325.868 442.857L180.162 297.151L174.505 302.808L320.211 448.514L325.868 442.857Z" fill="#1EAFB9"/>
<circle cx="177.333" cy="299.979" r="22.3057" stroke="#D6FF7E" stroke-width="8" stroke-linejoin="round"/>
<rect x="631.92" y="571.098" width="200" height="200" stroke="#1EAFB9" stroke-width="8" stroke-linejoin="round"/>
<circle cx="831.92" cy="671.098" r="22.3057" stroke="#D6FF7E" stroke-width="8" stroke-linejoin="round"/>
<circle cx="731.92" cy="671.098" r="22.3057" stroke="#D6FF7E" stroke-width="8" stroke-linejoin="round"/>
<circle cx="731.92" cy="771.098" r="22.3057" stroke="#D6FF7E" stroke-width="8" stroke-linejoin="round"/>
<rect x="275.773" y="638.901" width="200" height="200" transform="rotate(15 275.773 638.901)" stroke="#27666A" stroke-width="8" stroke-linejoin="round"/>
<rect x="173.04" y="720.765" width="200" height="200" stroke="#1EAFB9" stroke-width="8" stroke-linejoin="round"/>
<path d="M1240.9 158.465L1348.63 119.757" stroke="#1EAFB9" stroke-width="8" stroke-linejoin="round"/>
<path d="M1240.9 202.586L1348.63 241.294" stroke="#1EAFB9" stroke-width="8" stroke-linejoin="round"/>
<circle cx="1242.95" cy="180.525" r="22.3057" stroke="#D6FF7E" stroke-width="8" stroke-linejoin="round"/>
<circle cx="1374.53" cy="180.525" r="65.6279" stroke="#D6FF7E" stroke-width="8" stroke-linejoin="round"/>
<path d="M691.92 138.634V338.634H491.92" stroke="#1EAFB9" stroke-width="8" stroke-linejoin="round"/>
<circle cx="691.92" cy="238.634" r="22.3057" stroke="#D6FF7E" stroke-width="8" stroke-linejoin="round"/>
<circle cx="591.92" cy="338.634" r="22.3057" stroke="#D6FF7E" stroke-width="8" stroke-linejoin="round"/>
<path d="M1534.17 422.345H1769.47" stroke="#27666A" stroke-width="8" stroke-linejoin="round"/>
<path d="M1464.46 659.571H1714.5" stroke="#27666A" stroke-width="8" stroke-linejoin="round"/>
<circle cx="1534.43" cy="421.985" r="22.3057" stroke="#D6FF7E" stroke-width="8" stroke-linejoin="round"/>
<path d="M1464.46 659.571C1707.45 659.571 1536.65 422.345 1769.47 422.345" stroke="#1EAFB9" stroke-width="8" stroke-linejoin="round"/>
<circle cx="1769.47" cy="421.985" r="22.3057" stroke="#D6FF7E" stroke-width="8" stroke-linejoin="round"/>
<circle cx="1714.5" cy="659.571" r="22.3057" stroke="#D6FF7E" stroke-width="8" stroke-linejoin="round"/>
<circle cx="1464.46" cy="659.571" r="22.3057" stroke="#D6FF7E" stroke-width="8" stroke-linejoin="round"/>
</svg>
